<?xml version="1.0" encoding="UTF-8"?>
<!DOCTYPE svg PUBLIC "-//W3C//DTD SVG 1.1//EN" "http://www.w3.org/Graphics/SVG/1.1/DTD/svg11.dtd">
<!-- Creator: CorelDRAW -->
<svg xmlns="http://www.w3.org/2000/svg" xml:space="preserve" width="282px" height="73px" version="1.1" style="shape-rendering:geometricPrecision; text-rendering:geometricPrecision; image-rendering:optimizeQuality; fill-rule:evenodd; clip-rule:evenodd"
viewBox="0 0 282 72.65"
 xmlns:xlink="http://www.w3.org/1999/xlink"
 xmlns:xodm="http://www.corel.com/coreldraw/odm/2003">
 <defs>
  <style type="text/css">
   <![CDATA[
    .fil1 {fill:white}
    .fil0 {fill:white;fill-rule:nonzero}
   ]]>
  </style>
 </defs>
 <g id="Layer_x0020_1">
  <metadata id="CorelCorpID_0Corel-Layer"/>
  <g id="_1967213782976">
   <path class="fil0" d="M114.69 54.54c-2.32,0 -4.26,-0.56 -5.84,-1.68 -1.57,-1.14 -2.76,-2.68 -3.57,-4.61 -0.81,-1.93 -1.21,-4.11 -1.21,-6.53 0,-2.43 0.4,-4.61 1.19,-6.54 0.81,-1.93 1.99,-3.45 3.55,-4.56 1.57,-1.12 3.5,-1.69 5.79,-1.69 2.28,0 4.24,0.57 5.89,1.69 1.66,1.11 2.94,2.63 3.84,4.56 0.9,1.92 1.35,4.09 1.35,6.54 0,2.42 -0.45,4.61 -1.35,6.56 -0.88,1.93 -2.15,3.45 -3.8,4.58 -1.63,1.12 -3.57,1.68 -5.84,1.68zm-11.41 -0.67l0 -32.35 4.72 0 0 14.9 -0.54 0 0 17.45 -4.18 0zm10.76 -3.57c1.5,0 2.74,-0.38 3.71,-1.15 0.99,-0.76 1.72,-1.79 2.2,-3.08 0.49,-1.3 0.74,-2.75 0.74,-4.35 0,-1.59 -0.25,-3.03 -0.74,-4.32 -0.48,-1.29 -1.22,-2.31 -2.22,-3.07 -1.01,-0.77 -2.29,-1.15 -3.84,-1.15 -1.47,0 -2.68,0.36 -3.64,1.08 -0.95,0.72 -1.65,1.72 -2.12,3.01 -0.44,1.29 -0.67,2.77 -0.67,4.45 0,1.67 0.23,3.16 0.67,4.44 0.45,1.29 1.17,2.3 2.14,3.04 0.97,0.73 2.23,1.1 3.77,1.1zm16.6 3.57l0 -24.26 4.18 0 0 5.88 -0.59 -0.76c0.3,-0.78 0.69,-1.49 1.17,-2.13 0.48,-0.66 1.03,-1.2 1.66,-1.62 0.62,-0.45 1.3,-0.8 2.05,-1.04 0.76,-0.25 1.54,-0.4 2.33,-0.44 0.8,-0.06 1.56,-0.03 2.29,0.11l0 4.4c-0.79,-0.21 -1.67,-0.27 -2.65,-0.18 -0.95,0.09 -1.84,0.4 -2.65,0.92 -0.76,0.5 -1.37,1.1 -1.82,1.8 -0.43,0.7 -0.75,1.49 -0.94,2.36 -0.19,0.85 -0.29,1.76 -0.29,2.72l0 12.24 -4.74 0zm23.52 0.67c-1.8,0 -3.3,-0.33 -4.51,-0.99 -1.22,-0.67 -2.14,-1.55 -2.77,-2.65 -0.61,-1.1 -0.92,-2.32 -0.92,-3.64 0,-1.22 0.22,-2.3 0.65,-3.23 0.44,-0.93 1.08,-1.72 1.94,-2.36 0.85,-0.66 1.9,-1.19 3.14,-1.59 1.08,-0.32 2.3,-0.6 3.66,-0.83 1.36,-0.24 2.8,-0.47 4.29,-0.68 1.51,-0.21 3.01,-0.42 4.49,-0.63l-1.7 0.95c0.03,-1.91 -0.38,-3.31 -1.22,-4.23 -0.82,-0.93 -2.24,-1.39 -4.26,-1.39 -1.28,0 -2.44,0.3 -3.51,0.9 -1.06,0.58 -1.8,1.56 -2.22,2.92l-4.38 -1.35c0.6,-2.08 1.74,-3.74 3.41,-4.96 1.69,-1.23 3.94,-1.85 6.74,-1.85 2.17,0 4.06,0.38 5.66,1.13 1.62,0.73 2.8,1.9 3.55,3.5 0.39,0.8 0.63,1.63 0.72,2.52 0.09,0.88 0.14,1.83 0.14,2.85l0 14.94 -4.16 0 0 -5.55 0.81 0.72c-1.01,1.86 -2.29,3.24 -3.84,4.15 -1.55,0.9 -3.45,1.35 -5.71,1.35zm0.83 -3.84c1.34,0 2.48,-0.23 3.44,-0.69 0.96,-0.48 1.73,-1.09 2.31,-1.83 0.59,-0.73 0.97,-1.49 1.15,-2.29 0.25,-0.71 0.39,-1.52 0.43,-2.42 0.04,-0.9 0.06,-1.62 0.06,-2.16l1.53 0.56c-1.48,0.23 -2.83,0.43 -4.04,0.61 -1.22,0.18 -2.32,0.36 -3.31,0.54 -0.97,0.16 -1.84,0.37 -2.6,0.61 -0.64,0.22 -1.22,0.49 -1.73,0.8 -0.5,0.32 -0.89,0.7 -1.19,1.15 -0.29,0.45 -0.43,1 -0.43,1.64 0,0.63 0.16,1.21 0.47,1.75 0.32,0.53 0.8,0.95 1.44,1.26 0.64,0.31 1.47,0.47 2.47,0.47zm34.92 3.17l0 -11.93c0,-0.94 -0.08,-1.91 -0.24,-2.9 -0.15,-1 -0.45,-1.93 -0.9,-2.78 -0.43,-0.86 -1.06,-1.54 -1.86,-2.07 -0.8,-0.52 -1.84,-0.79 -3.13,-0.79 -0.84,0 -1.63,0.15 -2.38,0.43 -0.75,0.27 -1.41,0.71 -1.97,1.33 -0.56,0.61 -1,1.42 -1.33,2.42 -0.31,1.01 -0.47,2.23 -0.47,3.66l-2.92 -1.1c0,-2.2 0.41,-4.14 1.23,-5.81 0.83,-1.7 2.01,-3.01 3.55,-3.96 1.54,-0.94 3.41,-1.41 5.6,-1.41 1.67,0 3.08,0.27 4.22,0.81 1.14,0.53 2.06,1.25 2.76,2.13 0.72,0.87 1.27,1.82 1.64,2.85 0.38,1.04 0.63,2.05 0.77,3.03 0.13,0.99 0.2,1.86 0.2,2.61l0 13.48 -4.77 0zm-17.04 0l0 -24.26 4.2 0 0 7.01 0.56 0 0 17.25 -4.76 0zm36.99 0.67c-2.26,0 -4.22,-0.56 -5.86,-1.68 -1.64,-1.13 -2.9,-2.65 -3.8,-4.58 -0.88,-1.95 -1.33,-4.14 -1.33,-6.56 0,-2.45 0.45,-4.62 1.35,-6.54 0.9,-1.93 2.17,-3.45 3.82,-4.56 1.66,-1.12 3.63,-1.69 5.91,-1.69 2.29,0 4.21,0.57 5.77,1.69 1.57,1.11 2.76,2.63 3.55,4.56 0.81,1.93 1.21,4.11 1.21,6.54 0,2.42 -0.4,4.6 -1.21,6.53 -0.81,1.93 -2,3.47 -3.57,4.61 -1.57,1.12 -3.52,1.68 -5.84,1.68zm0.65 -4.24c1.54,0 2.8,-0.37 3.77,-1.1 0.98,-0.74 1.69,-1.75 2.14,-3.04 0.45,-1.28 0.67,-2.77 0.67,-4.44 0,-1.68 -0.23,-3.16 -0.69,-4.45 -0.45,-1.29 -1.16,-2.29 -2.12,-3.01 -0.94,-0.72 -2.15,-1.08 -3.61,-1.08 -1.56,0 -2.84,0.38 -3.84,1.15 -1.01,0.76 -1.76,1.78 -2.25,3.07 -0.48,1.29 -0.72,2.73 -0.72,4.32 0,1.6 0.24,3.05 0.72,4.35 0.49,1.29 1.23,2.32 2.2,3.08 0.99,0.77 2.23,1.15 3.73,1.15zm6.58 3.57l0 -17.45 -0.54 0 0 -14.9 4.72 0 0 32.35 -4.18 0zm23.36 0.67c-2.53,0 -4.77,-0.51 -6.72,-1.55 -1.93,-1.05 -3.44,-2.51 -4.53,-4.38 -1.1,-1.88 -1.65,-4.1 -1.65,-6.65l0 -20.42 4.77 -0.02 0 20.2c0,1.37 0.23,2.59 0.69,3.63 0.47,1.05 1.09,1.93 1.87,2.63 0.78,0.71 1.64,1.24 2.6,1.6 0.98,0.36 1.97,0.54 2.97,0.54 1.02,0 2.01,-0.18 2.96,-0.54 0.98,-0.38 1.85,-0.92 2.63,-1.62 0.78,-0.7 1.4,-1.58 1.85,-2.63 0.46,-1.05 0.69,-2.25 0.69,-3.61l0 -20.2 4.76 0 0 20.44c0,2.53 -0.54,4.74 -1.64,6.63 -1.09,1.89 -2.61,3.35 -4.56,4.4 -1.93,1.04 -4.16,1.55 -6.69,1.55zm30.57 0c-2.33,0 -4.27,-0.56 -5.85,-1.68 -1.57,-1.14 -2.76,-2.68 -3.57,-4.61 -0.81,-1.93 -1.21,-4.11 -1.21,-6.53 0,-2.43 0.4,-4.61 1.19,-6.54 0.81,-1.93 1.99,-3.45 3.55,-4.56 1.57,-1.12 3.5,-1.69 5.8,-1.69 2.27,0 4.23,0.57 5.88,1.69 1.66,1.11 2.94,2.63 3.84,4.56 0.9,1.92 1.35,4.09 1.35,6.54 0,2.42 -0.45,4.61 -1.35,6.56 -0.88,1.93 -2.15,3.45 -3.79,4.58 -1.64,1.12 -3.58,1.68 -5.84,1.68zm-11.42 10.11l0 -35.04 4.18 0 0 17.45 0.54 0 0 17.59 -4.72 0zm10.76 -14.35c1.5,0 2.74,-0.38 3.71,-1.15 0.99,-0.76 1.72,-1.79 2.2,-3.08 0.5,-1.3 0.74,-2.75 0.74,-4.35 0,-1.59 -0.24,-3.03 -0.74,-4.32 -0.48,-1.29 -1.22,-2.31 -2.22,-3.07 -1,-0.77 -2.29,-1.15 -3.84,-1.15 -1.47,0 -2.68,0.36 -3.64,1.08 -0.95,0.72 -1.65,1.72 -2.11,3.01 -0.45,1.29 -0.68,2.77 -0.68,4.45 0,1.67 0.23,3.16 0.68,4.44 0.45,1.29 1.16,2.3 2.13,3.04 0.97,0.73 2.23,1.1 3.77,1.1z"/>
   <g>
    <path class="fil1" d="M81.65 0.24c-9.68,2.56 -19.2,5.31 -28.76,7.85 -2.16,0.58 -5.21,1.6 -3.55,4.4 0.68,1.15 10.61,5.2 12.6,6.09 4.24,1.9 2.91,0.52 4.73,4.61 3.02,6.8 5,15.42 8.96,12.92 0.92,-0.58 1.05,-1.64 1.44,-3.03 0.7,-2.49 1.36,-4.82 2.06,-7.28 1.36,-4.78 2.68,-9.41 4.06,-14.2 1.06,-3.71 5.46,-13.22 -1.54,-11.36z"/>
    <path class="fil1" d="M45.27 25.13l-12.54 11.88c-1.11,1.04 -2.17,1.85 -3.16,2.93 -4.35,4.72 -10.54,10.3 -15.39,15.03l-12.43 11.92c-3.59,3.6 -1.03,6.93 2.09,5.36 0.46,-0.23 5.77,-5.29 6.29,-5.91l30.78 -30.07c1.8,-1.98 4.22,-3.96 6.25,-5.93 0.86,-0.83 2.34,-1.84 1.88,-3.73 -0.45,-1.85 -2.06,-2.34 -3.77,-1.48z"/>
    <path class="fil1" d="M58 27.59c-1.79,0.65 -8.47,7.3 -9.8,8.66 -0.89,0.91 -1.16,1.44 -2.13,2.34l-21.25 20.56c-2.64,3.09 1.09,7.14 5.04,2.58l30.41 -29.64c2.29,-2.63 -0.02,-5.3 -2.27,-4.5z"/>
    <path class="fil1" d="M34.09 67.48c3.79,1.14 5.17,-1.73 7.04,-3.41l11.3 -11.02c1.01,-1.01 5.81,-4.35 2.85,-6.71 -3.08,-2.46 -8.41,5.06 -12.53,8.8 -2.02,1.82 -3.58,3.53 -5.6,5.36 -1.96,1.79 -4.75,3.24 -3.06,6.98z"/>
    <path class="fil1" d="M28.21 26.73l-11.28 10.7c-2,1.99 -3.35,3.01 -5.6,5.37 -2.97,3.1 -0.09,6.09 2.65,4.7l16.77 -16.13c3.23,-3.09 0.51,-6.36 -2.54,-4.64z"/>
   </g>
  </g>
 </g>
</svg>
