<?xml version="1.0" encoding="UTF-8"?>
<!DOCTYPE svg PUBLIC "-//W3C//DTD SVG 1.1//EN" "http://www.w3.org/Graphics/SVG/1.1/DTD/svg11.dtd">
<!-- Creator: CorelDRAW -->
<svg xmlns="http://www.w3.org/2000/svg" xml:space="preserve" width="86px" height="73px" version="1.1" style="shape-rendering:geometricPrecision; text-rendering:geometricPrecision; image-rendering:optimizeQuality; fill-rule:evenodd; clip-rule:evenodd"
viewBox="0 0 86 73.05"
 xmlns:xlink="http://www.w3.org/1999/xlink"
 xmlns:xodm="http://www.corel.com/coreldraw/odm/2003">
 <defs>
  <style type="text/css">
   <![CDATA[
    .fil0 {fill:white}
   ]]>
  </style>
 </defs>
 <g id="Layer_x0020_1">
  <metadata id="CorelCorpID_0Corel-Layer"/>
  <g id="_1967217317280">
   <path class="fil0" d="M82.1 0.24c-9.74,2.58 -19.31,5.34 -28.92,7.9 -2.17,0.58 -5.24,1.61 -3.56,4.42 0.68,1.15 10.66,5.23 12.66,6.12 4.27,1.91 2.93,0.52 4.76,4.64 3.03,6.84 5.02,15.51 9.01,12.99 0.93,-0.58 1.05,-1.65 1.44,-3.05 0.7,-2.5 1.37,-4.84 2.08,-7.32 1.37,-4.81 2.7,-9.46 4.07,-14.27 1.07,-3.73 5.5,-13.3 -1.54,-11.43z"/>
   <path class="fil0" d="M45.52 25.27l-12.61 11.94c-1.12,1.05 -2.18,1.87 -3.17,2.95 -4.38,4.75 -10.61,10.36 -15.48,15.12l-12.5 11.98c-3.61,3.61 -1.04,6.97 2.11,5.39 0.45,-0.23 5.79,-5.33 6.32,-5.95l30.94 -30.23c1.81,-1.99 4.25,-3.98 6.29,-5.96 0.86,-0.84 2.35,-1.85 1.89,-3.75 -0.45,-1.86 -2.07,-2.36 -3.79,-1.49z"/>
   <path class="fil0" d="M58.32 27.75c-1.8,0.64 -8.52,7.33 -9.86,8.7 -0.89,0.91 -1.16,1.45 -2.13,2.35l-21.37 20.67c-2.65,3.11 1.09,7.19 5.07,2.6l30.57 -29.8c2.3,-2.64 -0.02,-5.33 -2.28,-4.52z"/>
   <path class="fil0" d="M34.28 67.86c3.81,1.14 5.2,-1.74 7.08,-3.44l11.36 -11.07c1.02,-1.02 5.84,-4.38 2.86,-6.76 -3.09,-2.47 -8.45,5.1 -12.6,8.85 -2.02,1.84 -3.59,3.56 -5.62,5.4 -1.97,1.79 -4.78,3.25 -3.08,7.02z"/>
   <path class="fil0" d="M28.37 26.88l-11.35 10.76c-2,1.99 -3.36,3.02 -5.63,5.39 -2.98,3.12 -0.09,6.13 2.66,4.73l16.87 -16.21c3.24,-3.11 0.51,-6.41 -2.55,-4.67z"/>
  </g>
 </g>
</svg>
